<mxfile host="65bd71144e">
    <diagram id="vnEqAPr4J5WmaLDGI9y-" name="第 2 页">
        <mxGraphModel dx="749" dy="404" grid="1" gridSize="10" guides="1" tooltips="1" connect="1" arrows="1" fold="1" page="1" pageScale="1" pageWidth="827" pageHeight="1169" math="0" shadow="0">
            <root>
                <mxCell id="HCLreCvoSWEWSrg7l0JL-0"/>
                <mxCell id="HCLreCvoSWEWSrg7l0JL-1" parent="HCLreCvoSWEWSrg7l0JL-0"/>
            </root>
        </mxGraphModel>
    </diagram>
    <diagram id="aUHCgpg3Dkq3tFY94w-D" name="第 1 页">
        <mxGraphModel dx="1873" dy="1011" grid="1" gridSize="10" guides="1" tooltips="1" connect="1" arrows="1" fold="1" page="1" pageScale="1" pageWidth="827" pageHeight="1169" math="1" shadow="0">
            <root>
                <mxCell id="0"/>
                <mxCell id="1" parent="0"/>
                <mxCell id="AFBhSoepCEr5RxAsmD6B-73" style="edgeStyle=orthogonalEdgeStyle;rounded=0;orthogonalLoop=1;jettySize=auto;html=1;exitX=1;exitY=0.5;exitDx=0;exitDy=0;exitPerimeter=0;" parent="1" source="AFBhSoepCEr5RxAsmD6B-59" edge="1">
                    <mxGeometry relative="1" as="geometry">
                        <mxPoint x="560" y="260.28571428571433" as="targetPoint"/>
                    </mxGeometry>
                </mxCell>
                <mxCell id="AFBhSoepCEr5RxAsmD6B-59" value="" style="verticalLabelPosition=bottom;shadow=0;dashed=0;align=center;html=1;verticalAlign=top;shape=mxgraph.electrical.abstract.summation_point;" parent="1" vertex="1">
                    <mxGeometry x="420" y="240" width="40" height="40" as="geometry"/>
                </mxCell>
                <mxCell id="AFBhSoepCEr5RxAsmD6B-62" value="" style="edgeStyle=orthogonalEdgeStyle;rounded=0;orthogonalLoop=1;jettySize=auto;html=1;" parent="1" source="AFBhSoepCEr5RxAsmD6B-60" target="AFBhSoepCEr5RxAsmD6B-61" edge="1">
                    <mxGeometry relative="1" as="geometry"/>
                </mxCell>
                <mxCell id="AFBhSoepCEr5RxAsmD6B-66" style="edgeStyle=orthogonalEdgeStyle;rounded=0;orthogonalLoop=1;jettySize=auto;html=1;exitX=0;exitY=0.5;exitDx=0;exitDy=0;exitPerimeter=0;entryX=0;entryY=0.5;entryDx=0;entryDy=0;entryPerimeter=0;" parent="1" target="AFBhSoepCEr5RxAsmD6B-60" edge="1">
                    <mxGeometry relative="1" as="geometry">
                        <mxPoint x="160" y="260.28571428571433" as="sourcePoint"/>
                    </mxGeometry>
                </mxCell>
                <mxCell id="AFBhSoepCEr5RxAsmD6B-60" value="" style="verticalLabelPosition=bottom;shadow=0;dashed=0;align=center;html=1;verticalAlign=top;shape=mxgraph.electrical.abstract.summation_point;" parent="1" vertex="1">
                    <mxGeometry x="260" y="240" width="40" height="40" as="geometry"/>
                </mxCell>
                <mxCell id="AFBhSoepCEr5RxAsmD6B-63" value="" style="edgeStyle=orthogonalEdgeStyle;rounded=0;orthogonalLoop=1;jettySize=auto;html=1;" parent="1" source="AFBhSoepCEr5RxAsmD6B-61" target="AFBhSoepCEr5RxAsmD6B-59" edge="1">
                    <mxGeometry relative="1" as="geometry"/>
                </mxCell>
                <mxCell id="AFBhSoepCEr5RxAsmD6B-61" value="1/3" style="rounded=0;whiteSpace=wrap;html=1;" parent="1" vertex="1">
                    <mxGeometry x="340" y="240" width="40" height="40" as="geometry"/>
                </mxCell>
                <mxCell id="AFBhSoepCEr5RxAsmD6B-65" style="edgeStyle=orthogonalEdgeStyle;rounded=0;orthogonalLoop=1;jettySize=auto;html=1;entryX=0.5;entryY=0;entryDx=0;entryDy=0;entryPerimeter=0;" parent="1" source="AFBhSoepCEr5RxAsmD6B-64" target="AFBhSoepCEr5RxAsmD6B-60" edge="1">
                    <mxGeometry relative="1" as="geometry"/>
                </mxCell>
                <mxCell id="AFBhSoepCEr5RxAsmD6B-67" style="edgeStyle=orthogonalEdgeStyle;rounded=0;orthogonalLoop=1;jettySize=auto;html=1;exitX=0;exitY=0.5;exitDx=0;exitDy=0;entryX=0;entryY=0.5;entryDx=0;entryDy=0;" parent="1" target="AFBhSoepCEr5RxAsmD6B-64" edge="1">
                    <mxGeometry relative="1" as="geometry">
                        <mxPoint x="180" y="260" as="sourcePoint"/>
                        <Array as="points">
                            <mxPoint x="180" y="200"/>
                        </Array>
                    </mxGeometry>
                </mxCell>
                <mxCell id="AFBhSoepCEr5RxAsmD6B-64" value="D(3)" style="rounded=0;whiteSpace=wrap;html=1;" parent="1" vertex="1">
                    <mxGeometry x="200" y="180" width="40" height="40" as="geometry"/>
                </mxCell>
                <mxCell id="AFBhSoepCEr5RxAsmD6B-68" value="x[t]" style="text;html=1;align=center;verticalAlign=middle;resizable=0;points=[];autosize=1;strokeColor=none;" parent="1" vertex="1">
                    <mxGeometry x="165" y="260" width="30" height="20" as="geometry"/>
                </mxCell>
                <mxCell id="AFBhSoepCEr5RxAsmD6B-69" value="-" style="text;html=1;align=center;verticalAlign=middle;resizable=0;points=[];autosize=1;strokeColor=none;" parent="1" vertex="1">
                    <mxGeometry x="260" y="220" width="20" height="20" as="geometry"/>
                </mxCell>
                <mxCell id="AFBhSoepCEr5RxAsmD6B-70" value="+" style="text;html=1;align=center;verticalAlign=middle;resizable=0;points=[];autosize=1;strokeColor=none;" parent="1" vertex="1">
                    <mxGeometry x="240" y="240" width="20" height="20" as="geometry"/>
                </mxCell>
                <mxCell id="AFBhSoepCEr5RxAsmD6B-72" style="edgeStyle=orthogonalEdgeStyle;rounded=0;orthogonalLoop=1;jettySize=auto;html=1;exitX=0;exitY=0.5;exitDx=0;exitDy=0;entryX=0.5;entryY=1;entryDx=0;entryDy=0;entryPerimeter=0;" parent="1" source="AFBhSoepCEr5RxAsmD6B-71" target="AFBhSoepCEr5RxAsmD6B-59" edge="1">
                    <mxGeometry relative="1" as="geometry"/>
                </mxCell>
                <mxCell id="AFBhSoepCEr5RxAsmD6B-74" style="edgeStyle=orthogonalEdgeStyle;rounded=0;orthogonalLoop=1;jettySize=auto;html=1;exitX=1;exitY=0.5;exitDx=0;exitDy=0;entryX=1;entryY=0.5;entryDx=0;entryDy=0;" parent="1" target="AFBhSoepCEr5RxAsmD6B-71" edge="1">
                    <mxGeometry relative="1" as="geometry">
                        <mxPoint x="530" y="260" as="sourcePoint"/>
                        <Array as="points">
                            <mxPoint x="530" y="300"/>
                        </Array>
                    </mxGeometry>
                </mxCell>
                <mxCell id="AFBhSoepCEr5RxAsmD6B-71" value="D" style="rounded=0;whiteSpace=wrap;html=1;" parent="1" vertex="1">
                    <mxGeometry x="470" y="280" width="40" height="40" as="geometry"/>
                </mxCell>
                <mxCell id="AFBhSoepCEr5RxAsmD6B-75" value="y[t]" style="text;html=1;align=center;verticalAlign=middle;resizable=0;points=[];autosize=1;strokeColor=none;" parent="1" vertex="1">
                    <mxGeometry x="510" y="240" width="30" height="20" as="geometry"/>
                </mxCell>
                <mxCell id="wuOt5M93Fk9cYxT8XglJ-1" style="edgeStyle=orthogonalEdgeStyle;rounded=0;orthogonalLoop=1;jettySize=auto;html=1;exitX=1;exitY=0.5;exitDx=0;exitDy=0;exitPerimeter=0;" parent="1" source="wuOt5M93Fk9cYxT8XglJ-2" edge="1">
                    <mxGeometry relative="1" as="geometry">
                        <mxPoint x="575" y="349.95238095238096" as="targetPoint"/>
                    </mxGeometry>
                </mxCell>
                <mxCell id="wuOt5M93Fk9cYxT8XglJ-2" value="" style="verticalLabelPosition=bottom;shadow=0;dashed=0;align=center;html=1;verticalAlign=top;shape=mxgraph.electrical.abstract.summation_point;" parent="1" vertex="1">
                    <mxGeometry x="375" y="330" width="40" height="40" as="geometry"/>
                </mxCell>
                <mxCell id="wuOt5M93Fk9cYxT8XglJ-3" value="" style="edgeStyle=orthogonalEdgeStyle;rounded=0;orthogonalLoop=1;jettySize=auto;html=1;" parent="1" source="wuOt5M93Fk9cYxT8XglJ-5" target="wuOt5M93Fk9cYxT8XglJ-7" edge="1">
                    <mxGeometry relative="1" as="geometry"/>
                </mxCell>
                <mxCell id="wuOt5M93Fk9cYxT8XglJ-4" style="edgeStyle=orthogonalEdgeStyle;rounded=0;orthogonalLoop=1;jettySize=auto;html=1;exitX=1;exitY=0.5;exitDx=0;exitDy=0;entryX=1;entryY=0.5;entryDx=0;entryDy=0;" parent="1" target="wuOt5M93Fk9cYxT8XglJ-5" edge="1">
                    <mxGeometry relative="1" as="geometry">
                        <mxPoint x="555" y="350" as="sourcePoint"/>
                        <Array as="points">
                            <mxPoint x="555" y="430"/>
                        </Array>
                    </mxGeometry>
                </mxCell>
                <mxCell id="wuOt5M93Fk9cYxT8XglJ-5" value="D" style="rounded=0;whiteSpace=wrap;html=1;" parent="1" vertex="1">
                    <mxGeometry x="495" y="410" width="40" height="40" as="geometry"/>
                </mxCell>
                <mxCell id="wuOt5M93Fk9cYxT8XglJ-6" style="edgeStyle=orthogonalEdgeStyle;rounded=0;orthogonalLoop=1;jettySize=auto;html=1;exitX=0;exitY=0.5;exitDx=0;exitDy=0;entryX=0.5;entryY=1;entryDx=0;entryDy=0;entryPerimeter=0;" parent="1" source="wuOt5M93Fk9cYxT8XglJ-7" target="wuOt5M93Fk9cYxT8XglJ-2" edge="1">
                    <mxGeometry relative="1" as="geometry"/>
                </mxCell>
                <mxCell id="wuOt5M93Fk9cYxT8XglJ-7" value="1/2" style="rounded=0;whiteSpace=wrap;html=1;" parent="1" vertex="1">
                    <mxGeometry x="415" y="410" width="40" height="40" as="geometry"/>
                </mxCell>
                <mxCell id="wuOt5M93Fk9cYxT8XglJ-8" value="x[t]" style="text;html=1;align=center;verticalAlign=middle;resizable=0;points=[];autosize=1;strokeColor=none;" parent="1" vertex="1">
                    <mxGeometry x="175" y="330" width="30" height="20" as="geometry"/>
                </mxCell>
                <mxCell id="wuOt5M93Fk9cYxT8XglJ-9" value="y[t]" style="text;html=1;align=center;verticalAlign=middle;resizable=0;points=[];autosize=1;strokeColor=none;" parent="1" vertex="1">
                    <mxGeometry x="535" y="330" width="30" height="20" as="geometry"/>
                </mxCell>
                <mxCell id="wuOt5M93Fk9cYxT8XglJ-10" style="edgeStyle=orthogonalEdgeStyle;rounded=0;orthogonalLoop=1;jettySize=auto;html=1;exitX=1;exitY=0.5;exitDx=0;exitDy=0;entryX=0.5;entryY=1;entryDx=0;entryDy=0;entryPerimeter=0;" parent="1" source="wuOt5M93Fk9cYxT8XglJ-12" target="wuOt5M93Fk9cYxT8XglJ-15" edge="1">
                    <mxGeometry relative="1" as="geometry"/>
                </mxCell>
                <mxCell id="wuOt5M93Fk9cYxT8XglJ-11" style="edgeStyle=orthogonalEdgeStyle;rounded=0;orthogonalLoop=1;jettySize=auto;html=1;exitX=0;exitY=0.5;exitDx=0;exitDy=0;entryX=0;entryY=0.5;entryDx=0;entryDy=0;" parent="1" target="wuOt5M93Fk9cYxT8XglJ-12" edge="1">
                    <mxGeometry relative="1" as="geometry">
                        <mxPoint x="185" y="349.9999999999999" as="sourcePoint"/>
                        <Array as="points">
                            <mxPoint x="185" y="430"/>
                        </Array>
                    </mxGeometry>
                </mxCell>
                <mxCell id="wuOt5M93Fk9cYxT8XglJ-12" value="D" style="rounded=0;whiteSpace=wrap;html=1;" parent="1" vertex="1">
                    <mxGeometry x="205" y="410" width="80" height="40" as="geometry"/>
                </mxCell>
                <mxCell id="wuOt5M93Fk9cYxT8XglJ-13" style="edgeStyle=orthogonalEdgeStyle;rounded=0;orthogonalLoop=1;jettySize=auto;html=1;" parent="1" target="wuOt5M93Fk9cYxT8XglJ-15" edge="1">
                    <mxGeometry relative="1" as="geometry">
                        <mxPoint x="165" y="350" as="sourcePoint"/>
                        <Array as="points">
                            <mxPoint x="215" y="350"/>
                            <mxPoint x="215" y="350"/>
                        </Array>
                    </mxGeometry>
                </mxCell>
                <mxCell id="wuOt5M93Fk9cYxT8XglJ-14" value="" style="edgeStyle=orthogonalEdgeStyle;rounded=0;orthogonalLoop=1;jettySize=auto;html=1;" parent="1" source="wuOt5M93Fk9cYxT8XglJ-15" target="wuOt5M93Fk9cYxT8XglJ-2" edge="1">
                    <mxGeometry relative="1" as="geometry"/>
                </mxCell>
                <mxCell id="wuOt5M93Fk9cYxT8XglJ-15" value="" style="verticalLabelPosition=bottom;shadow=0;dashed=0;align=center;html=1;verticalAlign=top;shape=mxgraph.electrical.abstract.summation_point;" parent="1" vertex="1">
                    <mxGeometry x="295" y="330" width="40" height="40" as="geometry"/>
                </mxCell>
                <mxCell id="wuOt5M93Fk9cYxT8XglJ-16" value="+" style="text;html=1;align=center;verticalAlign=middle;resizable=0;points=[];autosize=1;strokeColor=none;" parent="1" vertex="1">
                    <mxGeometry x="275" y="330" width="20" height="20" as="geometry"/>
                </mxCell>
                <mxCell id="wuOt5M93Fk9cYxT8XglJ-17" value="-" style="text;html=1;align=center;verticalAlign=middle;resizable=0;points=[];autosize=1;strokeColor=none;" parent="1" vertex="1">
                    <mxGeometry x="295" y="370" width="20" height="20" as="geometry"/>
                </mxCell>
                <mxCell id="E6j95hiYopf_Z9ElKYOS-18" style="edgeStyle=orthogonalEdgeStyle;rounded=0;orthogonalLoop=1;jettySize=auto;html=1;exitX=1;exitY=0.5;exitDx=0;exitDy=0;exitPerimeter=0;entryX=0;entryY=0.5;entryDx=0;entryDy=0;entryPerimeter=0;" edge="1" parent="1" source="E6j95hiYopf_Z9ElKYOS-20" target="E6j95hiYopf_Z9ElKYOS-32">
                    <mxGeometry relative="1" as="geometry"/>
                </mxCell>
                <mxCell id="E6j95hiYopf_Z9ElKYOS-19" style="edgeStyle=orthogonalEdgeStyle;rounded=0;orthogonalLoop=1;jettySize=auto;html=1;exitX=0;exitY=0.5;exitDx=0;exitDy=0;exitPerimeter=0;entryX=0;entryY=0.5;entryDx=0;entryDy=0;entryPerimeter=0;" edge="1" parent="1" target="E6j95hiYopf_Z9ElKYOS-20">
                    <mxGeometry relative="1" as="geometry">
                        <mxPoint x="165" y="510.2857142857142" as="sourcePoint"/>
                    </mxGeometry>
                </mxCell>
                <mxCell id="E6j95hiYopf_Z9ElKYOS-20" value="" style="verticalLabelPosition=bottom;shadow=0;dashed=0;align=center;html=1;verticalAlign=top;shape=mxgraph.electrical.abstract.summation_point;" vertex="1" parent="1">
                    <mxGeometry x="215" y="490" width="40" height="40" as="geometry"/>
                </mxCell>
                <mxCell id="E6j95hiYopf_Z9ElKYOS-21" value="" style="edgeStyle=orthogonalEdgeStyle;rounded=0;orthogonalLoop=1;jettySize=auto;html=1;" edge="1" parent="1" source="E6j95hiYopf_Z9ElKYOS-23" target="E6j95hiYopf_Z9ElKYOS-25">
                    <mxGeometry relative="1" as="geometry"/>
                </mxCell>
                <mxCell id="E6j95hiYopf_Z9ElKYOS-22" style="edgeStyle=orthogonalEdgeStyle;rounded=0;orthogonalLoop=1;jettySize=auto;html=1;exitX=1;exitY=0.5;exitDx=0;exitDy=0;entryX=1;entryY=0.5;entryDx=0;entryDy=0;" edge="1" parent="1" target="E6j95hiYopf_Z9ElKYOS-23">
                    <mxGeometry relative="1" as="geometry">
                        <mxPoint x="395" y="510" as="sourcePoint"/>
                        <Array as="points">
                            <mxPoint x="395" y="590"/>
                        </Array>
                    </mxGeometry>
                </mxCell>
                <mxCell id="E6j95hiYopf_Z9ElKYOS-23" value="D" style="rounded=0;whiteSpace=wrap;html=1;" vertex="1" parent="1">
                    <mxGeometry x="335" y="570" width="40" height="40" as="geometry"/>
                </mxCell>
                <mxCell id="E6j95hiYopf_Z9ElKYOS-24" style="edgeStyle=orthogonalEdgeStyle;rounded=0;orthogonalLoop=1;jettySize=auto;html=1;exitX=0;exitY=0.5;exitDx=0;exitDy=0;entryX=0.5;entryY=1;entryDx=0;entryDy=0;entryPerimeter=0;" edge="1" parent="1" source="E6j95hiYopf_Z9ElKYOS-25" target="E6j95hiYopf_Z9ElKYOS-20">
                    <mxGeometry relative="1" as="geometry"/>
                </mxCell>
                <mxCell id="E6j95hiYopf_Z9ElKYOS-25" value="1/2" style="rounded=0;whiteSpace=wrap;html=1;" vertex="1" parent="1">
                    <mxGeometry x="255" y="570" width="40" height="40" as="geometry"/>
                </mxCell>
                <mxCell id="E6j95hiYopf_Z9ElKYOS-26" value="x[t]" style="text;html=1;align=center;verticalAlign=middle;resizable=0;points=[];autosize=1;strokeColor=none;" vertex="1" parent="1">
                    <mxGeometry x="165" y="490" width="30" height="20" as="geometry"/>
                </mxCell>
                <mxCell id="E6j95hiYopf_Z9ElKYOS-27" value="y[t]" style="text;html=1;align=center;verticalAlign=middle;resizable=0;points=[];autosize=1;strokeColor=none;" vertex="1" parent="1">
                    <mxGeometry x="575" y="490" width="30" height="20" as="geometry"/>
                </mxCell>
                <mxCell id="E6j95hiYopf_Z9ElKYOS-28" style="edgeStyle=orthogonalEdgeStyle;rounded=0;orthogonalLoop=1;jettySize=auto;html=1;exitX=1;exitY=0.5;exitDx=0;exitDy=0;entryX=0.5;entryY=1;entryDx=0;entryDy=0;entryPerimeter=0;" edge="1" parent="1" source="E6j95hiYopf_Z9ElKYOS-30" target="E6j95hiYopf_Z9ElKYOS-32">
                    <mxGeometry relative="1" as="geometry"/>
                </mxCell>
                <mxCell id="E6j95hiYopf_Z9ElKYOS-29" style="edgeStyle=orthogonalEdgeStyle;rounded=0;orthogonalLoop=1;jettySize=auto;html=1;exitX=0;exitY=0.5;exitDx=0;exitDy=0;entryX=0;entryY=0.5;entryDx=0;entryDy=0;" edge="1" parent="1" target="E6j95hiYopf_Z9ElKYOS-30">
                    <mxGeometry relative="1" as="geometry">
                        <mxPoint x="425" y="510" as="sourcePoint"/>
                        <Array as="points">
                            <mxPoint x="425" y="590"/>
                        </Array>
                    </mxGeometry>
                </mxCell>
                <mxCell id="E6j95hiYopf_Z9ElKYOS-30" value="D" style="rounded=0;whiteSpace=wrap;html=1;" vertex="1" parent="1">
                    <mxGeometry x="445" y="570" width="80" height="40" as="geometry"/>
                </mxCell>
                <mxCell id="E6j95hiYopf_Z9ElKYOS-31" style="edgeStyle=orthogonalEdgeStyle;rounded=0;orthogonalLoop=1;jettySize=auto;html=1;exitX=1;exitY=0.5;exitDx=0;exitDy=0;exitPerimeter=0;" edge="1" parent="1" source="E6j95hiYopf_Z9ElKYOS-32">
                    <mxGeometry relative="1" as="geometry">
                        <mxPoint x="605" y="510.2857142857142" as="targetPoint"/>
                    </mxGeometry>
                </mxCell>
                <mxCell id="E6j95hiYopf_Z9ElKYOS-32" value="" style="verticalLabelPosition=bottom;shadow=0;dashed=0;align=center;html=1;verticalAlign=top;shape=mxgraph.electrical.abstract.summation_point;" vertex="1" parent="1">
                    <mxGeometry x="535" y="490" width="40" height="40" as="geometry"/>
                </mxCell>
                <mxCell id="E6j95hiYopf_Z9ElKYOS-33" value="+" style="text;html=1;align=center;verticalAlign=middle;resizable=0;points=[];autosize=1;strokeColor=none;" vertex="1" parent="1">
                    <mxGeometry x="515" y="490" width="20" height="20" as="geometry"/>
                </mxCell>
                <mxCell id="E6j95hiYopf_Z9ElKYOS-34" value="-" style="text;html=1;align=center;verticalAlign=middle;resizable=0;points=[];autosize=1;strokeColor=none;" vertex="1" parent="1">
                    <mxGeometry x="535" y="530" width="20" height="20" as="geometry"/>
                </mxCell>
                <mxCell id="mR9qzbKFw6VzbUIbWFQz-1" value="" style="edgeStyle=orthogonalEdgeStyle;rounded=0;orthogonalLoop=1;jettySize=auto;html=1;" edge="1" parent="1" source="mR9qzbKFw6VzbUIbWFQz-2" target="mR9qzbKFw6VzbUIbWFQz-4">
                    <mxGeometry relative="1" as="geometry"/>
                </mxCell>
                <mxCell id="mR9qzbKFw6VzbUIbWFQz-2" value="" style="verticalLabelPosition=bottom;shadow=0;dashed=0;align=center;html=1;verticalAlign=top;shape=mxgraph.electrical.abstract.summation_point;" vertex="1" parent="1">
                    <mxGeometry x="320" y="710" width="40" height="40" as="geometry"/>
                </mxCell>
                <mxCell id="mR9qzbKFw6VzbUIbWFQz-3" value="" style="edgeStyle=orthogonalEdgeStyle;rounded=0;orthogonalLoop=1;jettySize=auto;html=1;" edge="1" parent="1" source="mR9qzbKFw6VzbUIbWFQz-4" target="mR9qzbKFw6VzbUIbWFQz-14">
                    <mxGeometry relative="1" as="geometry"/>
                </mxCell>
                <mxCell id="mR9qzbKFw6VzbUIbWFQz-4" value="" style="verticalLabelPosition=bottom;shadow=0;dashed=0;align=center;html=1;verticalAlign=top;shape=mxgraph.electrical.abstract.summation_point;" vertex="1" parent="1">
                    <mxGeometry x="400" y="710" width="40" height="40" as="geometry"/>
                </mxCell>
                <mxCell id="mR9qzbKFw6VzbUIbWFQz-5" value="" style="edgeStyle=orthogonalEdgeStyle;rounded=0;orthogonalLoop=1;jettySize=auto;html=1;" edge="1" parent="1" source="mR9qzbKFw6VzbUIbWFQz-7" target="mR9qzbKFw6VzbUIbWFQz-9">
                    <mxGeometry relative="1" as="geometry"/>
                </mxCell>
                <mxCell id="mR9qzbKFw6VzbUIbWFQz-6" style="edgeStyle=orthogonalEdgeStyle;rounded=0;orthogonalLoop=1;jettySize=auto;html=1;exitX=0;exitY=0.5;exitDx=0;exitDy=0;entryX=0;entryY=0.5;entryDx=0;entryDy=0;" edge="1" parent="1" target="mR9qzbKFw6VzbUIbWFQz-7">
                    <mxGeometry relative="1" as="geometry">
                        <mxPoint x="150" y="729.9999999999999" as="sourcePoint"/>
                    </mxGeometry>
                </mxCell>
                <mxCell id="mR9qzbKFw6VzbUIbWFQz-7" value="0.5" style="rounded=0;whiteSpace=wrap;html=1;" vertex="1" parent="1">
                    <mxGeometry x="200" y="630" width="40" height="40" as="geometry"/>
                </mxCell>
                <mxCell id="mR9qzbKFw6VzbUIbWFQz-8" style="edgeStyle=orthogonalEdgeStyle;rounded=0;orthogonalLoop=1;jettySize=auto;html=1;exitX=1;exitY=0.5;exitDx=0;exitDy=0;entryX=0.5;entryY=0;entryDx=0;entryDy=0;entryPerimeter=0;" edge="1" parent="1" source="mR9qzbKFw6VzbUIbWFQz-9" target="mR9qzbKFw6VzbUIbWFQz-2">
                    <mxGeometry relative="1" as="geometry"/>
                </mxCell>
                <mxCell id="mR9qzbKFw6VzbUIbWFQz-9" value="D" style="rounded=0;whiteSpace=wrap;html=1;" vertex="1" parent="1">
                    <mxGeometry x="280" y="630" width="40" height="40" as="geometry"/>
                </mxCell>
                <mxCell id="mR9qzbKFw6VzbUIbWFQz-10" value="x[t]" style="text;html=1;align=center;verticalAlign=middle;resizable=0;points=[];autosize=1;strokeColor=none;" vertex="1" parent="1">
                    <mxGeometry x="150" y="710" width="30" height="20" as="geometry"/>
                </mxCell>
                <mxCell id="mR9qzbKFw6VzbUIbWFQz-11" value="-" style="text;html=1;align=center;verticalAlign=middle;resizable=0;points=[];autosize=1;strokeColor=none;" vertex="1" parent="1">
                    <mxGeometry x="320" y="690" width="20" height="20" as="geometry"/>
                </mxCell>
                <mxCell id="mR9qzbKFw6VzbUIbWFQz-12" value="+" style="text;html=1;align=center;verticalAlign=middle;resizable=0;points=[];autosize=1;strokeColor=none;" vertex="1" parent="1">
                    <mxGeometry x="300" y="730" width="20" height="20" as="geometry"/>
                </mxCell>
                <mxCell id="mR9qzbKFw6VzbUIbWFQz-13" style="edgeStyle=orthogonalEdgeStyle;rounded=0;orthogonalLoop=1;jettySize=auto;html=1;exitX=1;exitY=0.5;exitDx=0;exitDy=0;" edge="1" parent="1" source="mR9qzbKFw6VzbUIbWFQz-14">
                    <mxGeometry relative="1" as="geometry">
                        <mxPoint x="600" y="730.1162790697674" as="targetPoint"/>
                    </mxGeometry>
                </mxCell>
                <mxCell id="mR9qzbKFw6VzbUIbWFQz-14" value="2" style="rounded=0;whiteSpace=wrap;html=1;" vertex="1" parent="1">
                    <mxGeometry x="480" y="710" width="40" height="40" as="geometry"/>
                </mxCell>
                <mxCell id="mR9qzbKFw6VzbUIbWFQz-15" style="edgeStyle=orthogonalEdgeStyle;rounded=0;orthogonalLoop=1;jettySize=auto;html=1;exitX=0;exitY=0.5;exitDx=0;exitDy=0;entryX=0.5;entryY=1;entryDx=0;entryDy=0;entryPerimeter=0;" edge="1" parent="1" source="mR9qzbKFw6VzbUIbWFQz-17" target="mR9qzbKFw6VzbUIbWFQz-4">
                    <mxGeometry relative="1" as="geometry"/>
                </mxCell>
                <mxCell id="mR9qzbKFw6VzbUIbWFQz-16" style="edgeStyle=orthogonalEdgeStyle;rounded=0;orthogonalLoop=1;jettySize=auto;html=1;exitX=1;exitY=0.5;exitDx=0;exitDy=0;entryX=1;entryY=0.5;entryDx=0;entryDy=0;" edge="1" parent="1" target="mR9qzbKFw6VzbUIbWFQz-17">
                    <mxGeometry relative="1" as="geometry">
                        <mxPoint x="560" y="730" as="sourcePoint"/>
                        <Array as="points">
                            <mxPoint x="560" y="810"/>
                        </Array>
                    </mxGeometry>
                </mxCell>
                <mxCell id="mR9qzbKFw6VzbUIbWFQz-17" value="D" style="rounded=0;whiteSpace=wrap;html=1;" vertex="1" parent="1">
                    <mxGeometry x="480" y="790" width="40" height="40" as="geometry"/>
                </mxCell>
                <mxCell id="mR9qzbKFw6VzbUIbWFQz-18" style="edgeStyle=orthogonalEdgeStyle;rounded=0;orthogonalLoop=1;jettySize=auto;html=1;exitX=0;exitY=0.5;exitDx=0;exitDy=0;entryX=0;entryY=0.5;entryDx=0;entryDy=0;" edge="1" parent="1" target="mR9qzbKFw6VzbUIbWFQz-20">
                    <mxGeometry relative="1" as="geometry">
                        <mxPoint x="150" y="730.1111111111111" as="sourcePoint"/>
                    </mxGeometry>
                </mxCell>
                <mxCell id="mR9qzbKFw6VzbUIbWFQz-19" style="edgeStyle=orthogonalEdgeStyle;rounded=0;orthogonalLoop=1;jettySize=auto;html=1;exitX=1;exitY=0.5;exitDx=0;exitDy=0;entryX=0;entryY=0.5;entryDx=0;entryDy=0;entryPerimeter=0;" edge="1" parent="1" source="mR9qzbKFw6VzbUIbWFQz-20" target="mR9qzbKFw6VzbUIbWFQz-2">
                    <mxGeometry relative="1" as="geometry"/>
                </mxCell>
                <mxCell id="mR9qzbKFw6VzbUIbWFQz-20" value="2" style="rounded=0;whiteSpace=wrap;html=1;" vertex="1" parent="1">
                    <mxGeometry x="240" y="710" width="40" height="40" as="geometry"/>
                </mxCell>
                <mxCell id="mR9qzbKFw6VzbUIbWFQz-21" value="+" style="text;html=1;align=center;verticalAlign=middle;resizable=0;points=[];autosize=1;strokeColor=none;" vertex="1" parent="1">
                    <mxGeometry x="380" y="710" width="20" height="20" as="geometry"/>
                </mxCell>
                <mxCell id="mR9qzbKFw6VzbUIbWFQz-22" value="y[t]" style="text;html=1;align=center;verticalAlign=middle;resizable=0;points=[];autosize=1;strokeColor=none;" vertex="1" parent="1">
                    <mxGeometry x="565" y="710" width="30" height="20" as="geometry"/>
                </mxCell>
            </root>
        </mxGraphModel>
    </diagram>
</mxfile>